<svg width="114" height="18" viewBox="0 0 114 18" fill="none" xmlns="http://www.w3.org/2000/svg">
<path d="M15.9633 6.20682L11.5002 5.55819L9.50509 1.51346C9.4506 1.40272 9.36095 1.31307 9.25021 1.25858C8.97247 1.12147 8.63497 1.23572 8.49611 1.51346L6.50099 5.55819L2.0379 6.20682C1.91486 6.2244 1.80236 6.2824 1.71622 6.37029C1.61209 6.47732 1.55471 6.62131 1.55669 6.77062C1.55867 6.91993 1.61984 7.06235 1.72677 7.16658L4.95587 10.3148L4.19298 14.7603C4.17509 14.8637 4.18653 14.9701 4.22601 15.0673C4.26549 15.1646 4.33143 15.2488 4.41634 15.3105C4.50126 15.3722 4.60175 15.4088 4.70644 15.4163C4.81112 15.4237 4.9158 15.4017 5.00861 15.3527L9.0006 13.2539L12.9926 15.3527C13.1016 15.4107 13.2281 15.4301 13.3494 15.409C13.6553 15.3562 13.861 15.0662 13.8082 14.7603L13.0453 10.3148L16.2744 7.16658C16.3623 7.08045 16.4203 6.96795 16.4379 6.8449C16.4854 6.53729 16.2709 6.25252 15.9633 6.20682Z" fill="#6D91EE"/>
<path d="M39.9633 6.20682L35.5002 5.55819L33.5051 1.51346C33.4506 1.40272 33.3609 1.31307 33.2502 1.25858C32.9725 1.12147 32.635 1.23572 32.4961 1.51346L30.501 5.55819L26.0379 6.20682C25.9149 6.2244 25.8024 6.2824 25.7162 6.37029C25.6121 6.47732 25.5547 6.62131 25.5567 6.77062C25.5587 6.91993 25.6198 7.06235 25.7268 7.16658L28.9559 10.3148L28.193 14.7603C28.1751 14.8637 28.1865 14.9701 28.226 15.0673C28.2655 15.1646 28.3314 15.2488 28.4163 15.3105C28.5013 15.3722 28.6018 15.4088 28.7064 15.4163C28.8111 15.4237 28.9158 15.4017 29.0086 15.3527L33.0006 13.2539L36.9926 15.3527C37.1016 15.4107 37.2281 15.4301 37.3494 15.409C37.6553 15.3562 37.861 15.0662 37.8082 14.7603L37.0453 10.3148L40.2744 7.16658C40.3623 7.08045 40.4203 6.96795 40.4379 6.8449C40.4854 6.53729 40.2709 6.25252 39.9633 6.20682Z" fill="#6D91EE"/>
<path d="M63.9633 6.20682L59.5002 5.55819L57.5051 1.51346C57.4506 1.40272 57.3609 1.31307 57.2502 1.25858C56.9725 1.12147 56.635 1.23572 56.4961 1.51346L54.501 5.55819L50.0379 6.20682C49.9149 6.2244 49.8024 6.2824 49.7162 6.37029C49.6121 6.47732 49.5547 6.62131 49.5567 6.77062C49.5587 6.91993 49.6198 7.06235 49.7268 7.16658L52.9559 10.3148L52.193 14.7603C52.1751 14.8637 52.1865 14.9701 52.226 15.0673C52.2655 15.1646 52.3314 15.2488 52.4163 15.3105C52.5013 15.3722 52.6018 15.4088 52.7064 15.4163C52.8111 15.4237 52.9158 15.4017 53.0086 15.3527L57.0006 13.2539L60.9926 15.3527C61.1016 15.4107 61.2281 15.4301 61.3494 15.409C61.6553 15.3562 61.861 15.0662 61.8082 14.7603L61.0453 10.3148L64.2744 7.16658C64.3623 7.08045 64.4203 6.96795 64.4379 6.8449C64.4854 6.53729 64.2709 6.25252 63.9633 6.20682Z" fill="#6D91EE"/>
<path d="M87.9633 6.20682L83.5002 5.55819L81.5051 1.51346C81.4506 1.40272 81.3609 1.31307 81.2502 1.25858C80.9725 1.12147 80.635 1.23572 80.4961 1.51346L78.501 5.55819L74.0379 6.20682C73.9149 6.2244 73.8024 6.2824 73.7162 6.37029C73.6121 6.47732 73.5547 6.62131 73.5567 6.77062C73.5587 6.91993 73.6198 7.06235 73.7268 7.16658L76.9559 10.3148L76.193 14.7603C76.1751 14.8637 76.1865 14.9701 76.226 15.0673C76.2655 15.1646 76.3314 15.2488 76.4163 15.3105C76.5013 15.3722 76.6018 15.4088 76.7064 15.4163C76.8111 15.4237 76.9158 15.4017 77.0086 15.3527L81.0006 13.2539L84.9926 15.3527C85.1016 15.4107 85.2281 15.4301 85.3494 15.409C85.6553 15.3562 85.861 15.0662 85.8082 14.7603L85.0453 10.3148L88.2744 7.16658C88.3623 7.08045 88.4203 6.96795 88.4379 6.8449C88.4854 6.53729 88.2709 6.25252 87.9633 6.20682Z" fill="#6D91EE"/>
<path d="M111.963 6.20682L107.5 5.55819L105.505 1.51346C105.451 1.40272 105.361 1.31307 105.25 1.25858C104.972 1.12147 104.635 1.23572 104.496 1.51346L102.501 5.55819L98.0379 6.20682C97.9149 6.2244 97.8024 6.2824 97.7162 6.37029C97.6121 6.47732 97.5547 6.62131 97.5567 6.77062C97.5587 6.91993 97.6198 7.06235 97.7268 7.16658L100.956 10.3148L100.193 14.7603C100.175 14.8637 100.187 14.9701 100.226 15.0673C100.265 15.1646 100.331 15.2488 100.416 15.3105C100.501 15.3722 100.602 15.4088 100.706 15.4163C100.811 15.4237 100.916 15.4017 101.009 15.3527L105.001 13.2539L108.993 15.3527C109.102 15.4107 109.228 15.4301 109.349 15.409C109.655 15.3562 109.861 15.0662 109.808 14.7603L109.045 10.3148L112.274 7.16658C112.362 7.08045 112.42 6.96795 112.438 6.8449C112.485 6.53729 112.271 6.25252 111.963 6.20682Z" fill="#6D91EE"/>
</svg>
